<svg xmlns="http://www.w3.org/2000/svg" xmlns:xlink="http://www.w3.org/1999/xlink" viewBox="420 420 1350 750"><defs><style>.cls-1,.cls-12{fill:none;}.cls-2{isolation:isolate;}.cls-3,.cls-6,.cls-7,.cls-8,.cls-9{mix-blend-mode:multiply;}.cls-4{clip-path:url(#clip-path);}.cls-5{fill:url(#Degradado_sin_nombre_22);}.cls-6,.cls-7,.cls-8,.cls-9{opacity:0.2;}.cls-6{fill:url(#linear-gradient);}.cls-7{fill:url(#linear-gradient-2);}.cls-8{fill:url(#linear-gradient-3);}.cls-9{fill:url(#linear-gradient-4);}.cls-10{fill:#f8e6cb;mix-blend-mode:overlay;}.cls-11{mix-blend-mode:soft-light;fill:url(#linear-gradient-5);}.cls-12{stroke:#d8d8d8;stroke-miterlimit:10;stroke-width:1.67px;}</style><clipPath id="clip-path" transform="translate(415.23 412.88)"><rect class="cls-1" width="1366" height="768"/></clipPath><linearGradient id="Degradado_sin_nombre_22" x1="1098.23" y1="412.88" x2="1098.23" y2="1180.88" gradientUnits="userSpaceOnUse"><stop offset="0" stop-color="#f7ffff"/><stop offset="1" stop-color="#e3dbdb"/></linearGradient><linearGradient id="linear-gradient" x1="403.72" y1="717.2" x2="1333.65" y2="717.2" gradientUnits="userSpaceOnUse"><stop offset="0" stop-color="#d1d5de"/><stop offset="1" stop-color="#dbdbdb"/></linearGradient><linearGradient id="linear-gradient-2" x1="-415.23" y1="914.56" x2="514.7" y2="914.56" xlink:href="#linear-gradient"/><linearGradient id="linear-gradient-3" x1="713.91" y1="-133.28" x2="1643.84" y2="-133.28" xlink:href="#linear-gradient"/><linearGradient id="linear-gradient-4" x1="0" y1="146.32" x2="903.05" y2="146.32" xlink:href="#linear-gradient"/><linearGradient id="linear-gradient-5" x1="293.84" y1="659.02" x2="1178.88" y2="659.02" xlink:href="#linear-gradient"/></defs><g class="cls-2"><g id="Layer_2" data-name="Layer 2"><g id="Layer_1-2" data-name="Layer 1"><g class="cls-3"><g class="cls-4"><rect class="cls-5" x="415.23" y="412.88" width="1366" height="768"/><path class="cls-6" d="M1243,837.57c-13.73-33.2-10-69.66-2.7-104.29s17.85-69.13,17.29-104.29c-.91-57.43-33.55-114-86.84-149.78s-126.25-49.85-192.58-36.84c-42,8.23-81.38,26.63-124.41,28.12-44.18,1.54-86.17-14.93-129.66-21.66-103.27-16-213.95,27.84-271.73,101.76s-63.28,173.1-21,254.14,129,143.21,228.28,172,209.79,25.44,309.39-2.56c48.84-13.73,95.35-33.16,144.88-45s104.23-15.54,151.31,2l68.38-30.45C1292,899.81,1256.75,870.78,1243,837.57Z" transform="translate(415.23 412.88)"/><path class="cls-7" d="M424.08,1034.93c-13.73-33.2-9.95-69.66-2.7-104.29s17.85-69.13,17.29-104.29c-.91-57.43-33.54-114-86.84-149.78s-126.25-49.85-192.58-36.84C117.3,648,77.87,666.35,34.84,667.85c-44.18,1.54-86.16-14.93-129.66-21.66C-198.08,630.2-308.77,674-366.55,748s-63.28,173.1-21,254.14,129,143.21,228.28,172,209.79,25.44,309.39-2.56c48.84-13.73,95.35-33.16,144.88-45s104.23-15.54,151.31,2l68.38-30.45C473,1097.17,437.8,1068.14,424.08,1034.93Z" transform="translate(415.23 412.88)"/><path class="cls-8" d="M1553.22-12.91c-13.73-33.21-10-69.67-2.7-104.3s17.85-69.12,17.3-104.29c-.92-57.42-33.55-114-86.85-149.78s-126.25-49.85-192.58-36.84C1246.45-399.89,1207-381.49,1164-380c-44.18,1.53-86.16-14.93-129.66-21.66-103.26-16-213.95,27.83-271.73,101.76s-63.28,173.1-21,254.14,129,143.21,228.28,172,209.79,25.45,309.4-2.55c48.83-13.73,95.34-33.16,144.87-45s104.24-15.54,151.31,2l68.38-30.45C1602.16,49.33,1566.94,20.3,1553.22-12.91Z" transform="translate(415.23 412.88)"/><path class="cls-9" d="M903.05,0A222.45,222.45,0,0,1,848.14,106.9c-56.39,61.19-149.88,96.69-241.58,91.7-9.75-.53-19.56-1.46-29.42-2.58-51.5-5.82-104-16.44-150.2,1.7-39.23,15.41-64.31,48.46-99.72,69.43-46.32,27.43-108.66,31.92-162.54,17.28S65.19,237.66,31.84,199.09C20.31,185.76,10.11,171.62,0,157.45V0Z" transform="translate(415.23 412.88)"/><path class="cls-10" d="M1109.61,0a127.8,127.8,0,0,1-39.38,21c-26.61,8.68-56.6,10.36-80.75,23.15C957.66,61,942.87,93.4,934.85,124.35s-11.63,63.5-29.72,91.27c-37.48,57.61-130.68,77.43-204.57,56.54-49.2-13.92-90.29-42-123.42-76.14a375,375,0,0,1-43.82-55C504.84,97.62,484,49.84,444.88,12.77A166.53,166.53,0,0,0,429.69,0Z" transform="translate(415.23 412.88)"/><path class="cls-10" d="M1366,377.56V768H699.72a213.69,213.69,0,0,1,12.49-48.6C733,665.76,778.07,618.77,835.23,590a278.39,278.39,0,0,1,98.93-28.64c45.77-4.31,97.37.9,132.65-24.06,21.22-15,31.53-38,44.75-58.5,37.66-58.42,108.61-103.15,187.27-107.85A219.5,219.5,0,0,1,1366,377.56Z" transform="translate(415.23 412.88)"/><path class="cls-11" d="M1178.88,768h-885a209.19,209.19,0,0,1,18.06-61.53c21.35-46,64-89.77,122-96.74,25-3,49.54,1.07,73.31,8.51,34.06,10.64,72.21,2,95.58-21.49A157.9,157.9,0,0,1,664.33,559c44.15-14.76,96.35-11.15,137.06,9.45A233.52,233.52,0,0,1,835.23,590c30.41,22.61,57.75,49.06,96,58.89,39.84,10.2,83.37,0,124.18,6.83,59.83,10.09,103.8,56.13,121.18,105.45C1177.44,763.45,1178.18,765.72,1178.88,768Z" transform="translate(415.23 412.88)"/><ellipse class="cls-10" cx="771.14" cy="652.19" rx="62.07" ry="52.35"/><ellipse class="cls-10" cx="1503.53" cy="810.73" rx="21.31" ry="17.97"/><path class="cls-10" d="M188.28,609.07c0,5-4.77,9-10.65,9s-10.66-4-10.66-9,4.77-9,10.66-9S188.28,604.1,188.28,609.07Z" transform="translate(415.23 412.88)"/><path class="cls-10" d="M1200.19,328.08c0,5-4.77,9-10.66,9s-10.65-4-10.65-9,4.77-9,10.65-9S1200.19,323.12,1200.19,328.08Z" transform="translate(415.23 412.88)"/><path class="cls-12" d="M161.55-18.68c75.7-.08,150.74,29.33,199.49,78.17C403.32,101.85,425.1,156,461.36,202.1s97.52,86.62,162.06,76.49c44.31-7,79.54-36.77,100.38-70.48s29.86-71.53,41-108.36S790.15,25.52,819-3.67c36.61-37,96-57,152.79-51.34" transform="translate(415.23 412.88)"/><path class="cls-12" d="M186.9-21c71-.07,141.31,27.49,187,73.27C413.55,92,434,142.69,468,186s91.42,81.2,151.92,71.7c41.54-6.52,74.56-34.46,94.09-66.06S742,124.53,752.42,90s23.74-69.58,50.81-96.94c34.32-34.68,90-53.4,143.23-48.13" transform="translate(415.23 412.88)"/><path class="cls-12" d="M212.26-23.34C278.49-23.41,344.13,2.31,386.78,45c37,37.05,56,84.38,87.77,124.76s85.3,75.78,141.77,66.91c38.76-6.09,69.58-32.16,87.81-61.65s26.12-62.58,35.89-94.8,22.16-64.94,47.42-90.47c32-32.37,84-49.84,133.66-44.92" transform="translate(415.23 412.88)"/><path class="cls-12" d="M237.61-25.68c61.49-.06,122.44,23.82,162,63.49,34.34,34.41,52,78.35,81.49,115.84s79.2,70.36,131.63,62.13c36-5.66,64.6-29.87,81.53-57.25s24.25-58.1,33.31-88,20.58-60.28,44-84c29.73-30.06,78-46.28,124.1-41.7" transform="translate(415.23 412.88)"/><path class="cls-12" d="M263-28c56.75-.06,113,22,149.55,58.6,31.7,31.75,48,72.31,75.21,106.91s73.1,64.94,121.49,57.34c33.22-5.22,59.62-27.56,75.24-52.83s22.39-53.63,30.75-81.24,19-55.64,40.64-77.52c27.44-27.74,72-42.71,114.54-38.49" transform="translate(415.23 412.88)"/><path class="cls-12" d="M557.35,879.41c-12.53-38.55-21.67-80.56-4.16-117.71,22.94-48.66,86.6-75.92,148.26-82.16s123.74,4.08,185.67,8.05,128.24.53,179.28-29.31c70.79-41.38,94-122,157.89-170.75,53.26-40.63,133.66-54,201.24-33.53" transform="translate(415.23 412.88)"/><path class="cls-12" d="M604.25,879.41c-11.85-36.47-20.5-76.21-3.93-111.35,21.7-46,81.92-71.82,140.25-77.72s117,3.85,175.63,7.61,121.32.5,169.6-27.72c67-39.15,88.94-115.43,149.36-161.53,50.38-38.44,126.44-51.11,190.37-31.72" transform="translate(415.23 412.88)"/><path class="cls-12" d="M651.15,879.41c-11.18-34.38-19.33-71.86-3.71-105C667.9,731,724.68,706.7,779.68,701.13s110.38,3.64,165.61,7.18,114.39.48,159.91-26.14c63.14-36.91,83.86-108.83,140.83-152.3,47.51-36.24,119.22-48.19,179.5-29.91" transform="translate(415.23 412.88)"/><path class="cls-12" d="M698.05,879.41c-10.5-32.3-18.16-67.5-3.49-98.63,19.23-40.78,72.57-63.62,124.24-68.85s103.69,3.42,155.57,6.74,107.47.45,150.23-24.55c59.32-34.68,78.78-102.25,132.3-143.08,44.63-34,112-45.27,168.63-28.1" transform="translate(415.23 412.88)"/><path class="cls-12" d="M745,879.41c-9.82-30.22-17-63.15-3.26-92.27,18-38.15,67.89-59.52,116.22-64.41s97,3.19,145.55,6.31,100.53.42,140.54-23c55.49-32.44,73.71-95.66,123.78-133.86,41.75-31.85,104.77-42.36,157.75-26.29" transform="translate(415.23 412.88)"/><path class="cls-12" d="M-13.53,306.64c-9.15,26.85,7.14,55.88,30.75,75.48s53.83,32.29,81.6,47.52,54.61,34.68,65.12,61.17c18.69,47.14-19.47,95.13-37.67,142.41-27.53,71.53-6.07,154.93,54.14,210.41" transform="translate(415.23 412.88)"/><path class="cls-12" d="M-35.14,312.18C-44.28,339-28,368.06-4.39,387.66S49.44,420,77.21,435.19s54.62,34.67,65.12,61.17c18.7,47.14-19.47,95.12-37.66,142.4C77.13,710.3,98.59,793.69,158.8,849.18" transform="translate(415.23 412.88)"/><path class="cls-12" d="M-56.75,317.72c-9.14,26.86,7.14,55.89,30.75,75.49s53.83,32.29,81.6,47.52,54.62,34.67,65.13,61.17C139.42,549,101.25,597,83.06,644.3,55.53,715.84,77,799.24,137.19,854.72" transform="translate(415.23 412.88)"/><path class="cls-12" d="M-78.35,323.27c-9.15,26.85,7.14,55.88,30.74,75.48S6.22,431,34,446.27,88.61,481,99.12,507.44c18.69,47.14-19.47,95.13-37.67,142.41-27.53,71.53-6.08,154.93,54.13,210.41" transform="translate(415.23 412.88)"/><path class="cls-12" d="M1048.79-287c4.62,27.66,33.51,48.58,64.54,58.37s64.76,11,97.48,15.36,66.63,12.9,89,33.49c39.85,36.63,28.17,93.56,34.39,143,9.42,74.79,69.3,143.59,151.08,173.57" transform="translate(415.23 412.88)"/><path class="cls-12" d="M1031.73-274.53c4.62,27.67,33.51,48.59,64.54,58.37s64.76,11,97.48,15.37,66.63,12.9,89,33.49c39.85,36.63,28.17,93.56,34.4,143,9.41,74.79,69.29,143.58,151.08,173.57" transform="translate(415.23 412.88)"/><path class="cls-12" d="M1014.68-262c4.61,27.67,33.51,48.58,64.54,58.37s64.76,11,97.48,15.37,66.62,12.9,89,33.48c39.84,36.63,28.17,93.57,34.39,143,9.41,74.79,69.3,143.58,151.08,173.56" transform="translate(415.23 412.88)"/><path class="cls-12" d="M997.62-249.55c4.62,27.66,33.51,48.58,64.54,58.37s64.76,11,97.48,15.36,66.63,12.9,89,33.49c39.85,36.63,28.17,93.56,34.39,143,9.42,74.79,69.3,143.58,151.09,173.57" transform="translate(415.23 412.88)"/></g></g></g></g></g></svg>