<svg xmlns="http://www.w3.org/2000/svg" xmlns:xlink="http://www.w3.org/1999/xlink" width="80" height="79" viewBox="0 0 80 79">
    <defs>
        <path id="prefix__a" d="M16.557 30.638c8.302 0 15.033-6.587 15.033-14.711 0-8.126-6.73-14.713-15.033-14.713-19.938.772-19.943 28.65 0 29.424z"/>
        <path id="prefix__c" d="M1.042 2.645L5.207 5.624 6.153 3.857 1.772 1.663z"/>
        <path id="prefix__f" d="M0.936 3.857L1.88 5.624 6.049 2.645 5.317 1.663z"/>
        <path id="prefix__i" d="M15.252 1.34C7.325 1.34.901 7.629.901 15.387v30.729c0 7.758 6.424 14.046 14.351 14.046H46.65C54.576 60.162 61 53.874 61 46.116V15.387C61 7.63 54.576 1.34 46.649 1.34"/>
        <path id="prefix__k" d="M15.252 1.34C7.325 1.34.901 7.629.901 15.387v30.729c0 7.758 6.424 14.046 14.351 14.046H46.65C54.576 60.162 61 53.874 61 46.116V15.387C61 7.63 54.576 1.34 46.649 1.34H15.252z"/>
        <path id="prefix__m" d="M16.431 29.8c8.185 0 14.821-6.494 14.821-14.506 0-8.01-6.636-14.506-14.82-14.506-19.655.763-19.663 28.249 0 29.013z"/>
        <path id="prefix__o" d="M15.252 1.34C7.325 1.34.901 7.629.901 15.387v30.729c0 7.758 6.424 14.046 14.351 14.046H46.65C54.576 60.162 61 53.874 61 46.116V15.387C61 7.63 54.576 1.34 46.649 1.34"/>
        <path id="prefix__q" d="M15.252 1.34C7.325 1.34.901 7.629.901 15.387v30.729c0 7.758 6.424 14.046 14.351 14.046H46.65C54.576 60.162 61 53.874 61 46.116V15.387C61 7.63 54.576 1.34 46.649 1.34H15.252z"/>
        <linearGradient id="prefix__d" x1="56.134%" x2="47.089%" y1="16.069%" y2="57.227%">
            <stop offset="0%" stop-color="#FEFEFE"/>
            <stop offset="100%" stop-color="#DDDFE0"/>
        </linearGradient>
        <linearGradient id="prefix__g" x1="43.835%" x2="52.877%" y1="16.092%" y2="57.222%">
            <stop offset="0%" stop-color="#FEFEFE"/>
            <stop offset="100%" stop-color="#DDDFE0"/>
        </linearGradient>
    </defs>
    <g fill="none" fill-rule="evenodd">
        <g>
            <path stroke="#231F20" stroke-width=".345" d="M59.693 77.77H19.599C8.939 77.77.3 69.315.3 58.883v-39.24C.301 9.212 8.94.753 19.6.753h40.094c10.659 0 19.3 8.459 19.3 18.89v39.24c0 10.432-8.641 18.889-19.3 18.889z" transform="translate(0 -1) translate(0 1.243)"/>
            <path fill="#FDCD73" d="M55.345 68.673H23.948c-7.927 0-14.353-6.29-14.353-14.046v-30.73c0-7.757 6.426-14.046 14.353-14.046h31.397c7.927 0 14.351 6.29 14.351 14.046v30.73c0 7.757-6.424 14.046-14.351 14.046" transform="translate(0 -1) translate(0 1.243)"/>
        </g>
        <g transform="translate(0 -1) translate(12.174 13.158)">
            <mask id="prefix__b" fill="#fff">
                <use xlink:href="#prefix__a"/>
            </mask>
            <path fill="#61C3AD" d="M-9.774 46.334L42.913 46.334 42.913 -5.232 -9.774 -5.232z" mask="url(#prefix__b)"/>
            <path fill="#90539B" d="M16.576 38.412c6.532 0 13.678.03 17.513-4.561-.588-.918-2.511-4.763-3.129-5.553-.054-.11-.111-.218-.177-.318-2.15-2.965-6.113-4.368-9.706-5.015-1.205-.241-2.557-.366-4.064-.355-.635-.012-.23-.012-.865 0-4.702.007-11.155 1.506-13.58 5.133-.759.911-2.827 4.938-3.545 6.06 3.833 4.62 10.998 4.61 17.553 4.61" mask="url(#prefix__b)"/>
            <path fill="#E98023" d="M19.227 19.582c-.466-1.964-.207-3.708-.207-3.708h-4.965s.26 1.744-.207 3.708c-.464 1.966-1.937 3.425-1.937 3.425 2.283 1.687 7.003 1.667 9.254 0 0 0-1.472-1.459-1.938-3.425" mask="url(#prefix__b)"/>
            <path fill="#FBBA6B" d="M16.539 5.917c-8.407-.34-5.213 14.894-.002 14.586 5.219.36 8.39-14.959.002-14.586" mask="url(#prefix__b)"/>
            <path fill="#90539B" d="M22.153 8.484c-.67-2.27-2.398-3.62-5.615-3.636-4.435-.038-6.082 2.79-5.884 6.325.042.398.042 1.013.165 1.518.079.97.788 2.484 1.185 3.284.125-.634-.009-1.849-.007-2.75-.009-1.907.628-3.707 2.464-4.44.218-.13.472-.23.769-.293 3.068-.642 4.595 0 4.595 0s1.024.725 1.196 3.183c.009.106 0 .206-.02.303l.001.015c.21 1.263-.1 3.071.07 3.982.574-1.083 1.24-2.77 1.29-4.055.263-1.116.104-2.345-.209-3.436" mask="url(#prefix__b)"/>
            <path fill="#90539B" d="M20.182 7.783s-.58 1.743-1.825 2.63c-1.245.885-6.76.43-6.76.43.272-5.01 5.724-4.968 8.585-3.06" mask="url(#prefix__b)"/>
        </g>
        <g transform="translate(0 -1) translate(22.609 33.583)">
            <mask id="prefix__e" fill="#fff">
                <use xlink:href="#prefix__c"/>
            </mask>
            <path fill="url(#prefix__d)" d="M1.042 2.645L5.207 5.624 6.153 3.857 1.772 1.663z" mask="url(#prefix__e)"/>
        </g>
        <g transform="translate(0 -1) translate(27.826 33.583)">
            <mask id="prefix__h" fill="#fff">
                <use xlink:href="#prefix__f"/>
            </mask>
            <path fill="url(#prefix__g)" d="M0.936 3.857L1.88 5.624 6.049 2.645 5.317 1.663z" mask="url(#prefix__h)"/>
        </g>
        <g transform="translate(0 -1) translate(8.696 9.753)">
            <mask id="prefix__j" fill="#fff">
                <use xlink:href="#prefix__i"/>
            </mask>
            <path fill="#F38379" d="M56.4 21.68v-9.42c0-.704-.811-1.281-1.802-1.281H33.36c-.991 0-1.803.577-1.803 1.282v2.723l-4.006 2.058 4.006 2.08v2.558c0 .705.812 1.282 1.803 1.282h21.237c.99 0 1.801-.577 1.801-1.282" mask="url(#prefix__j)"/>
            <mask id="prefix__l" fill="#fff">
                <use xlink:href="#prefix__k"/>
            </mask>
            <path fill="#FEFEFE" d="M34.715 15.733L52.76 15.733 52.76 14.291 34.715 14.291zM34.715 19.161L52.76 19.161 52.76 17.719 34.715 17.719z" mask="url(#prefix__l)"/>
        </g>
        <g transform="translate(0 -1) translate(34.783 36.987)">
            <mask id="prefix__n" fill="#fff">
                <use xlink:href="#prefix__m"/>
            </mask>
            <path fill="#5EA8DB" d="M-6.809 42.553L39.668 42.553 39.668 -2.934 -6.809 -2.934z" mask="url(#prefix__n)"/>
            <path fill="#6B3A77" d="M16.445 30.732c4.692 0 9.828.022 12.583-3.277-.423-.66-1.805-3.421-2.249-3.99-.038-.08-.08-.156-.127-.228-1.546-2.13-4.391-3.138-6.974-3.603-.866-.174-1.835-.262-2.918-.255-.457-.009-.165-.009-.623 0-3.379.005-8.014 1.082-9.756 3.688-.546.654-2.03 3.547-2.546 4.352 2.753 3.32 7.9 3.313 12.61 3.313" mask="url(#prefix__n)"/>
            <path fill="#E98023" d="M18.653 17.204c-.332-1.413-.25-2.664-.25-2.664h-3.97s.083 1.251-.251 2.664c-.334 1.413-1.089 2.46-1.089 2.46 1.569 1.204 5.104 1.19 6.649 0 0 0-.755-1.047-1.089-2.46" mask="url(#prefix__n)"/>
            <path fill="#FBBA6B" d="M16.411 5.133c-7.934-.254-4.805 12.898 0 12.585 1.778 0 2.97-1.105 3.993-3.38 1.02-2.273 2.204-9.292-3.993-9.205" mask="url(#prefix__n)"/>
            <path fill="#6B3A77" d="M21.668 7.347c-.654-1.999-2.253-3.112-5.256-3.14-4.14-.016-5.682 2.358-5.508 5.46.038.344.038.875.153 1.31.077.848.74 2.143 1.11 2.834.116-.548-.007-1.594-.007-2.372-.009-1.648.588-3.199 2.308-3.832.203-.112.44-.199.718-.252 2.873-.555 4.3 0 4.3 0s.96.625 1.123 2.746c.006.09 0 .178-.02.26 0 .005 0 .009.002.014.195 1.09-.096 2.65.064 3.436.534-.93 1.159-2.377 1.207-3.5.246-.963.1-2.023-.194-2.964" mask="url(#prefix__n)"/>
            <path fill="#6B3A77" d="M19.822 6.742s-.543 1.504-1.707 2.269c-1.165.766-6.328.372-6.328.372.287-4.526 5.678-4.146 8.035-2.641" mask="url(#prefix__n)"/>
        </g>
        <g transform="translate(0 -1) translate(8.696 9.753)">
            <mask id="prefix__p" fill="#fff">
                <use xlink:href="#prefix__o"/>
            </mask>
            <path fill="#F38379" d="M6.02 38.534v9.42c0 .705.813 1.282 1.802 1.282H29.06c.991 0 1.803-.577 1.803-1.282V45.23l4.005-2.057-4.005-2.08v-2.559c0-.704-.812-1.281-1.803-1.281H7.822c-.99 0-1.801.577-1.801 1.281" mask="url(#prefix__p)"/>
            <mask id="prefix__r" fill="#fff">
                <use xlink:href="#prefix__q"/>
            </mask>
            <path fill="#FEFEFE" d="M9.661 45.922L27.706 45.922 27.706 44.48 9.661 44.48zM9.661 42.495L27.706 42.495 27.706 41.054 9.661 41.054z" mask="url(#prefix__r)"/>
        </g>
    </g>
</svg>
