<svg xmlns="http://www.w3.org/2000/svg" width="82" height="81" viewBox="0 0 82 81">
    <g fill="none" fill-rule="evenodd">
        <path fill="#BB9CC9" d="M62.914 71.083H16.975c-4.934 0-8.934-3.935-8.934-8.788V17.11c0-4.853 4-8.787 8.934-8.787h45.939c4.934 0 8.933 3.934 8.933 8.787v45.186c0 4.853-4 8.788-8.933 8.788L40.84 39.058" transform="translate(1 1)"/>
        <path stroke="#6F6F6E" stroke-width="1.002" d="M70.385 79.249H9.504c-5.162 0-9.345-4.115-9.345-9.193V9.35C.159 4.27 4.342.156 9.504.156h60.88c5.162 0 9.346 4.115 9.346 9.193v60.707c0 5.078-4.184 9.193-9.345 9.193z" transform="translate(1 1)"/>
        <path fill="#964B93" d="M29.416 14.8c3.193-1.5 6.61-2.366 10.155-2.576 3.545-.21 7.042.247 10.394 1.358 2.633.873 5.087 2.122 7.324 3.724l4.514-5.01c.292-.324.836-.18.925.244l3.71 17.716c.072.345-.212.66-.568.632l-18.327-1.495c-.44-.036-.65-.55-.357-.874l5.023-5.575c-1.448-.958-3.011-1.719-4.673-2.27-2.42-.802-4.946-1.131-7.508-.98-2.562.152-5.03.778-7.333 1.86-2.384 1.119-4.49 2.682-6.26 4.646-1.769 1.964-3.094 4.208-3.938 6.67-.815 2.38-1.15 4.864-.996 7.385.155 2.52.791 4.946 1.891 7.213 1.138 2.344 2.727 4.416 4.724 6.156 1.997 1.74 4.278 3.044 6.78 3.873 2.42.802 4.946 1.132 7.508.98 2.563-.152 5.03-.777 7.334-1.86 1.915-.898 3.651-2.085 5.177-3.535.636-.604 1.634-.63 2.295-.053l3.177 2.77c.729.635.762 1.745.07 2.42-2.176 2.123-4.672 3.852-7.44 5.153-3.193 1.498-6.61 2.365-10.155 2.576-3.545.21-7.043-.247-10.395-1.359-3.473-1.15-6.635-2.956-9.398-5.364-2.763-2.409-4.964-5.28-6.543-8.533-1.525-3.14-2.406-6.5-2.62-9.987-.213-3.488.252-6.928 1.381-10.225 1.17-3.416 3.006-6.526 5.455-9.244 2.448-2.717 5.367-4.883 8.674-6.436" transform="translate(1 1)"/>
    </g>
</svg>
