<svg xmlns="http://www.w3.org/2000/svg" viewBox="0 0 158.67 17.61"><defs><style>.a{fill:#fff;}</style></defs><path class="a" d="M4,12.53A.48.48,0,0,0,3.45,12h-1V9.38H5.31c1.09,0,1.62.51,1.62,1.38v.37a3.36,3.36,0,0,1,0,.53h0a4.77,4.77,0,0,1,4.36-2.57c2.74,0,4.32,1.43,4.32,4.7v4.82a.48.48,0,0,0,.53.53h1v2.6H14.18c-1.17,0-1.65-.49-1.65-1.65V14.42c0-1.5-.39-2.52-1.94-2.52a3.39,3.39,0,0,0-3.32,2.52A5.23,5.23,0,0,0,7,16.07v5.67H4Z" transform="translate(-2.48 -4.42)"/><path class="a" d="M37.73,12.53A.48.48,0,0,0,37.2,12h-1V9.38H39c1.09,0,1.64.46,1.64,1.5v.73a5.59,5.59,0,0,1,0,.78h0a4.26,4.26,0,0,1,3.93-3.18,4,4,0,0,1,.56,0v3a5.45,5.45,0,0,0-.76,0,3.47,3.47,0,0,0-3.36,2.59,7.51,7.51,0,0,0-.27,2v4.9H37.73Z" transform="translate(-2.48 -4.42)"/><path class="a" d="M53.11,14h.39v-.09c0-1.77-.71-2.43-2.28-2.43-.56,0-1.65.15-1.65.83v.65H46.71V11.63c0-2.3,3.25-2.54,4.53-2.54,4.12,0,5.33,2.16,5.33,4.92v4.6a.49.49,0,0,0,.54.53h1v2.6H55.31c-1.14,0-1.57-.63-1.57-1.36,0-.32,0-.53,0-.53h0A4,4,0,0,1,50,22c-2.2,0-4.21-1.38-4.21-3.86C45.77,14.3,51.1,14,53.11,14Zm-2.38,5.65c1.65,0,2.81-1.75,2.81-3.25v-.29H53c-1.6,0-4.14.22-4.14,1.94A1.65,1.65,0,0,0,50.73,19.63Z" transform="translate(-2.48 -4.42)"/><path class="a" d="M60.54,12.53A.47.47,0,0,0,60,12H59V9.38h2.84c1.09,0,1.62.51,1.62,1.38v.37c0,.26,0,.53,0,.53h.05a4.6,4.6,0,0,1,4-2.57,3.45,3.45,0,0,1,3.61,2.54h.05a4.76,4.76,0,0,1,4.21-2.54c2.57,0,4,1.45,4,4.7v4.82a.48.48,0,0,0,.53.53h1v2.6H78c-1.16,0-1.65-.49-1.65-1.65V14.37c0-1.4-.27-2.47-1.69-2.47a3.25,3.25,0,0,0-3,2.84,5.54,5.54,0,0,0-.19,1.57v5.43H68.44V14.37c0-1.33-.19-2.47-1.67-2.47s-2.59,1.29-3,2.86a6.33,6.33,0,0,0-.19,1.55v5.43H60.54Z" transform="translate(-2.48 -4.42)"/><path class="a" d="M90.7,4.42c2.42,0,6.37,1,6.37,3.61v1.4h-1.6V8.49c0-1.6-2.76-2.48-4.72-2.48C87,6,84.06,9,84.06,13.09s2.88,7.34,6.76,7.34A7.78,7.78,0,0,0,96.39,18l1,1.24A9,9,0,0,1,90.79,22c-5,0-8.5-4-8.5-8.94A8.37,8.37,0,0,1,90.7,4.42Z" transform="translate(-2.48 -4.42)"/><path class="a" d="M100.26,6.67a.48.48,0,0,0-.53-.53h-1V4.71h1.72c1,0,1.48.43,1.48,1.47V19.77a.47.47,0,0,0,.53.54h1v1.43h-1.72c-1,0-1.48-.44-1.48-1.48Z" transform="translate(-2.48 -4.42)"/><path class="a" d="M112.54,14.23h.68v-.15c0-2.54-.92-3.44-3.15-3.44-.6,0-2.37.17-2.37,1.07v.77h-1.58V11.32c0-1.7,2.91-2.06,4-2.06,3.85,0,4.77,2.06,4.77,4.68v5.83a.47.47,0,0,0,.53.54h1v1.43h-1.67c-1,0-1.46-.46-1.46-1.46,0-.53,0-.89,0-.89h0a4.32,4.32,0,0,1-4,2.64c-2,0-4.14-1.19-4.14-3.61C105.08,14.37,110.43,14.23,112.54,14.23Zm-3.05,6.39c2.33,0,3.73-2.42,3.73-4.53v-.56h-.7c-1.92,0-5.74.05-5.74,2.79A2.41,2.41,0,0,0,109.49,20.62Z" transform="translate(-2.48 -4.42)"/><path class="a" d="M118.57,18.76a5,5,0,0,0,3.76,1.84c1.35,0,2.56-.66,2.56-1.94,0-2.66-6.83-2.18-6.83-6.11,0-2.2,1.89-3.29,4.34-3.29,1.23,0,3.7.48,3.7,2.2v1h-1.55v-.58c0-.9-1.3-1.24-2.1-1.24-1.7,0-2.72.58-2.72,1.77,0,2.74,6.84,2.11,6.84,6.15,0,2-1.85,3.42-4.27,3.42a5.83,5.83,0,0,1-4.67-2.14Z" transform="translate(-2.48 -4.42)"/><path class="a" d="M129.23,18.76A4.94,4.94,0,0,0,133,20.6c1.36,0,2.57-.66,2.57-1.94,0-2.66-6.83-2.18-6.83-6.11,0-2.2,1.89-3.29,4.34-3.29,1.23,0,3.7.48,3.7,2.2v1h-1.55v-.58c0-.9-1.31-1.24-2.11-1.24-1.69,0-2.71.58-2.71,1.77,0,2.74,6.83,2.11,6.83,6.15,0,2-1.84,3.42-4.26,3.42a5.84,5.84,0,0,1-4.68-2.14Z" transform="translate(-2.48 -4.42)"/><path class="a" d="M145.21,9.26c3.37,0,5.11,2.59,5.11,5.62,0,.29,0,.82,0,.82h-9.35a4.62,4.62,0,0,0,4.72,4.85,5.44,5.44,0,0,0,3.66-1.5l.8,1.23A6.91,6.91,0,0,1,145.58,22a6.17,6.17,0,0,1-6.37-6.37C139.21,11.66,141.94,9.26,145.21,9.26Zm3.42,5.14c-.1-2.52-1.65-3.76-3.44-3.76A4.19,4.19,0,0,0,141,14.4Z" transform="translate(-2.48 -4.42)"/><path class="a" d="M153.16,18.76a4.94,4.94,0,0,0,3.75,1.84c1.36,0,2.57-.66,2.57-1.94,0-2.66-6.83-2.18-6.83-6.11,0-2.2,1.89-3.29,4.33-3.29,1.24,0,3.71.48,3.71,2.2v1h-1.55v-.58c0-.9-1.31-1.24-2.11-1.24-1.69,0-2.71.58-2.71,1.77,0,2.74,6.83,2.11,6.83,6.15,0,2-1.84,3.42-4.26,3.42a5.84,5.84,0,0,1-4.68-2.14Z" transform="translate(-2.48 -4.42)"/></svg>