<?xml version="1.0" encoding="UTF-8" standalone="no"?>
<svg
   xmlns:dc="http://purl.org/dc/elements/1.1/"
   xmlns:cc="http://creativecommons.org/ns#"
   xmlns:rdf="http://www.w3.org/1999/02/22-rdf-syntax-ns#"
   xmlns:svg="http://www.w3.org/2000/svg"
   xmlns="http://www.w3.org/2000/svg"
   xmlns:sodipodi="http://sodipodi.sourceforge.net/DTD/sodipodi-0.dtd"
   xmlns:inkscape="http://www.inkscape.org/namespaces/inkscape"
   version="1.1"
   id="Layer_1"
   x="0px"
   y="0px"
   width="512px"
   height="512px"
   viewBox="0 0 512 512"
   style="enable-background:new 0 0 512 512;"
   xml:space="preserve"
   sodipodi:docname="victory WS.svg"
   inkscape:version="1.0.2 (e86c870879, 2021-01-15)"><metadata
   id="metadata395"><rdf:RDF><cc:Work
       rdf:about=""><dc:format>image/svg+xml</dc:format><dc:type
         rdf:resource="http://purl.org/dc/dcmitype/StillImage" /><dc:title></dc:title></cc:Work></rdf:RDF></metadata><defs
   id="defs393"><filter
     style="color-interpolation-filters:sRGB;"
     inkscape:label="Drop Shadow"
     id="filter1307"><feFlood
       flood-opacity="0.227451"
       flood-color="rgb(154,82,190)"
       result="flood"
       id="feFlood1297" /><feComposite
       in="flood"
       in2="SourceGraphic"
       operator="in"
       result="composite1"
       id="feComposite1299" /><feGaussianBlur
       in="composite1"
       stdDeviation="11.976"
       result="blur"
       id="feGaussianBlur1301" /><feOffset
       dx="-15.8683"
       dy="27.8443"
       result="offset"
       id="feOffset1303" /><feComposite
       in="SourceGraphic"
       in2="offset"
       operator="over"
       result="composite2"
       id="feComposite1305" /></filter><filter
     style="color-interpolation-filters:sRGB;"
     inkscape:label="Drop Shadow"
     id="filter1727"><feFlood
       flood-opacity="0.607843"
       flood-color="rgb(154,82,190)"
       result="flood"
       id="feFlood1717" /><feComposite
       in="flood"
       in2="SourceGraphic"
       operator="in"
       result="composite1"
       id="feComposite1719" /><feGaussianBlur
       in="composite1"
       stdDeviation="6.58683"
       result="blur"
       id="feGaussianBlur1721" /><feOffset
       dx="4.49102"
       dy="9.58084"
       result="offset"
       id="feOffset1723" /><feComposite
       in="SourceGraphic"
       in2="offset"
       operator="over"
       result="composite2"
       id="feComposite1725" /></filter></defs><sodipodi:namedview
   pagecolor="#ffffff"
   bordercolor="#666666"
   borderopacity="1"
   objecttolerance="10"
   gridtolerance="10"
   guidetolerance="10"
   inkscape:pageopacity="0"
   inkscape:pageshadow="2"
   inkscape:window-width="1122"
   inkscape:window-height="882"
   id="namedview391"
   showgrid="false"
   inkscape:zoom="0.83007813"
   inkscape:cx="117.43391"
   inkscape:cy="319.22341"
   inkscape:window-x="0"
   inkscape:window-y="0"
   inkscape:window-maximized="0"
   inkscape:current-layer="Layer_1" />
<style
   type="text/css"
   id="style356">
	.st0{fill:url(#SVGID_1_);}
	.st1{fill:url(#SVGID_2_);}
	.st2{fill:url(#SVGID_3_);}
	.st3{fill:url(#SVGID_4_);}
</style>
<linearGradient
   id="SVGID_1_"
   gradientUnits="userSpaceOnUse"
   x1="19.1558"
   y1="133.2694"
   x2="481.1558"
   y2="393.2694">
	<stop
   offset="0.1421"
   style="stop-color:#FEA2CF"
   id="stop358" />
	<stop
   offset="0.4086"
   style="stop-color:#FAA0D1"
   id="stop360" />
	<stop
   offset="1"
   style="stop-color:#A272FF"
   id="stop362" />
</linearGradient>
<path
   class="st0"
   d="M 282.6,256 311.3,44.5 C 314.2,23.3 299.4,3.5 278.2,0.4 276.3,0.1 274.4,0 272.4,0 264,0 256,2.7 249.3,7.8 241.1,14 235.7,23.1 234.2,33.4 L 206,206.3 177.7,33.5 C 174.9,14.4 158.3,0 139.1,0 c -1.8,0 -3.7,0.1 -5.6,0.4 -21.1,3.1 -35.9,22.9 -33,44.1 l 29.6,218.6 C 105.1,275.2 89,300.7 89,328.3 v 44.5 c 0,76.7 62.4,139.1 139.1,139.1 h 55.6 c 76.7,0 139.1,-62.4 139.1,-139.1 V 256 Z"
   id="path365"
   style="fill:url(#SVGID_1_);filter:url(#filter1307)"
   transform="matrix(0.88062361,0,0,0.90138217,22.7238,6.5682942)" />
<g
   id="g388"
   style="filter:url(#filter1727)"
   transform="matrix(0.88062361,0,0,0.90138217,22.7238,6.5682942)">
	<linearGradient
   id="SVGID_2_"
   gradientUnits="userSpaceOnUse"
   x1="99.9674"
   y1="94.7099"
   x2="537.96729"
   y2="317.7099">
		<stop
   offset="0.3249"
   style="stop-color:#FFC08B"
   id="stop367" />
		<stop
   offset="0.797"
   style="stop-color:#FF8C7B"
   id="stop369" />
	</linearGradient>
	<path
   class="st1"
   d="m 384,311.7 c -21.5,0 -39,-17.5 -39,-39 v -66.8 c 0,-21.5 17.5,-39 39,-39 10.4,0 20.2,4.1 27.5,11.4 7.4,7.4 11.4,17.1 11.4,27.5 v 66.8 c 0,21.6 -17.4,39.1 -38.9,39.1 z"
   id="path372"
   style="fill:url(#SVGID_2_)" />
	<linearGradient
   id="SVGID_3_"
   gradientUnits="userSpaceOnUse"
   x1="83.929604"
   y1="126.21"
   x2="521.92963"
   y2="349.20999">
		<stop
   offset="0.3249"
   style="stop-color:#FFC08B"
   id="stop374" />
		<stop
   offset="0.797"
   style="stop-color:#FF8C7B"
   id="stop376" />
	</linearGradient>
	<path
   class="st2"
   d="m 306.1,311.7 c -21.5,0 -39,-17.5 -39,-39 v -66.8 l 1.2,-9.2 c 4.5,-17.8 20,-29.8 37.8,-29.8 10.4,0 20.2,4.1 27.5,11.4 7.4,7.4 11.4,17.1 11.4,27.5 v 66.8 c 0,21.6 -17.4,39.1 -38.9,39.1 z"
   id="path379"
   style="fill:url(#SVGID_3_)" />
	<linearGradient
   id="SVGID_4_"
   gradientUnits="userSpaceOnUse"
   x1="32.466599"
   y1="227.2897"
   x2="470.46661"
   y2="450.28979">
		<stop
   offset="0.3249"
   style="stop-color:#FFC08B"
   id="stop381" />
		<stop
   offset="0.797"
   style="stop-color:#FF8C7B"
   id="stop383" />
	</linearGradient>
	<path
   class="st3"
   d="m 94.6,333.9 c -3.1,0 -5.6,-2.5 -5.6,-5.6 0,-28 16.5,-53.8 41.9,-65.7 9.4,-4.3 20,-6.6 30.4,-6.6 h 66.8 c 21.5,0 39,17.5 39,39 0,21.5 -17.5,39 -39,39 z"
   id="path386"
   style="fill:url(#SVGID_4_)" />
</g>
</svg>
