<svg xmlns="http://www.w3.org/2000/svg" xmlns:xlink="http://www.w3.org/1999/xlink" viewBox="0 0 89.35 32.52"><defs><style>.cls-1{fill:url(#New_Gradient_Swatch_2);}.cls-2{fill:url(#New_Gradient_Swatch_2-2);}.cls-3{fill:url(#New_Gradient_Swatch_2-3);}.cls-4{fill:url(#New_Gradient_Swatch_2-4);}.cls-5{fill:url(#linear-gradient);}.cls-6{fill:url(#New_Gradient_Swatch_3);}.cls-7{fill:url(#New_Gradient_Swatch_3-2);}.cls-8{fill:url(#New_Gradient_Swatch_3-3);}.cls-9{fill:#fff;}</style><linearGradient id="New_Gradient_Swatch_2" x1="-8.52" y1="7.55" x2="89.3" y2="25.55" gradientUnits="userSpaceOnUse"><stop offset="0" stop-color="#21d4fd"/><stop offset="1" stop-color="#b721ff"/></linearGradient><linearGradient id="New_Gradient_Swatch_2-2" x1="-7.25" y1="0.66" x2="90.57" y2="18.66" xlink:href="#New_Gradient_Swatch_2"/><linearGradient id="New_Gradient_Swatch_2-3" x1="-6.92" y1="-1.16" x2="90.91" y2="16.84" xlink:href="#New_Gradient_Swatch_2"/><linearGradient id="New_Gradient_Swatch_2-4" x1="-6.26" y1="-4.77" x2="91.57" y2="13.23" xlink:href="#New_Gradient_Swatch_2"/><linearGradient id="linear-gradient" x1="12.57" y1="-9.65" x2="34.87" y2="22.05" gradientUnits="userSpaceOnUse"><stop offset="0.26" stop-color="#ff2600" stop-opacity="0.7"/><stop offset="0.93" stop-color="#c80000"/></linearGradient><linearGradient id="New_Gradient_Swatch_3" x1="6.7" y1="-5.52" x2="29" y2="26.18" gradientUnits="userSpaceOnUse"><stop offset="0" stop-color="#ff2600" stop-opacity="0.7"/><stop offset="1" stop-color="#c80000"/></linearGradient><linearGradient id="New_Gradient_Swatch_3-2" x1="13.77" y1="-10.5" x2="36.07" y2="21.2" xlink:href="#New_Gradient_Swatch_3"/><linearGradient id="New_Gradient_Swatch_3-3" x1="67.63" y1="10.58" x2="79.37" y2="-8.29" gradientTransform="matrix(1, 0, 0, -1, 0, 27.82)" xlink:href="#New_Gradient_Swatch_3"/></defs><g id="Layer_2" data-name="Layer 2"><g id="Layer_1-2" data-name="Layer 1"><g id="Layer_2-2" data-name="Layer 2"><path class="cls-1" d="M1.67,7.08a.54.54,0,0,0-.59-.6H0V3.57H3.13c1.19,0,1.79.54,1.79,1.51v.38a3.8,3.8,0,0,1-.06.59h.06A5.31,5.31,0,0,1,9.78,3.19c3,0,4.81,1.56,4.81,5.24v5.4a.53.53,0,0,0,.59.59h1.08v2.87H13c-1.3,0-1.84-.54-1.84-1.84V9.13c0-1.67-.43-2.81-2.16-2.81A3.71,3.71,0,0,0,5.35,9.13,6.64,6.64,0,0,0,5.08,11v6.32H1.67Z"/><path class="cls-2" d="M41.38,7.08a.55.55,0,0,0-.6-.6H39.7V3.57h3.14c1.19,0,1.83.48,1.83,1.67v.81a7.42,7.42,0,0,1-.05.87h.05A4.73,4.73,0,0,1,49.05,3.4a3.8,3.8,0,0,1,.59.06V6.81a4.85,4.85,0,0,0-.81-.06,3.79,3.79,0,0,0-3.72,2.87,8.74,8.74,0,0,0-.27,2.21v5.46H41.43V7.08Z"/><path class="cls-3" d="M58.45,8.64h.43v-.1c0-1.95-.75-2.7-2.54-2.7-.59,0-1.83.16-1.83.91v.71H51.32V6c0-2.54,3.62-2.81,5-2.81,4.59,0,5.94,2.38,5.94,5.45v5.19a.54.54,0,0,0,.6.59H64v2.87H60.88c-1.24,0-1.73-.7-1.73-1.52v-.59h0a4.45,4.45,0,0,1-4.16,2.43c-2.43,0-4.7-1.51-4.7-4.27C50.29,9,56.23,8.64,58.45,8.64ZM55.8,15c1.84,0,3.14-1.94,3.14-3.61V11h-.6c-1.78,0-4.59.22-4.59,2.16A1.81,1.81,0,0,0,55.8,15Z"/><path class="cls-4" d="M66.71,7.08a.54.54,0,0,0-.59-.6H65V3.57h3.13c1.19,0,1.79.54,1.79,1.51v1H70a5.09,5.09,0,0,1,4.43-2.86,3.84,3.84,0,0,1,4,2.81h0a5.29,5.29,0,0,1,4.7-2.81c2.86,0,4.48,1.62,4.48,5.24v5.4a.54.54,0,0,0,.6.59h1v2.87H86.05c-1.29,0-1.83-.54-1.83-1.84V9.08c0-1.57-.27-2.76-1.89-2.76A3.62,3.62,0,0,0,79,9.45a5.9,5.9,0,0,0-.22,1.73v6.05H75.52V9.08c0-1.46-.22-2.76-1.84-2.76s-2.86,1.41-3.29,3.19a8.25,8.25,0,0,0-.22,1.73v6h-3.4V7.08Z"/><path class="cls-5" d="M26,3a8,8,0,0,1,1.57.16L22.63.33a2.37,2.37,0,0,0-3.56,2.05V8.1A7.26,7.26,0,0,1,26,3Z"/><path class="cls-6" d="M26,17.5a7.28,7.28,0,0,1-6.91-5.07v5.72a2.37,2.37,0,0,0,3.56,2.05l5-2.86A8.09,8.09,0,0,1,26,17.5Z"/><path class="cls-7" d="M36.3,8.21l-5-2.86a7.27,7.27,0,0,1,2,4.91h0l-5.51.92V9.29l4.16.7A5.95,5.95,0,1,0,26,16.15a6,6,0,0,0,4.81-2.43l1.08.76a6,6,0,0,1-.54.65l5-2.87A2.33,2.33,0,0,0,36.3,8.21Zm-12,3-3.4-.92,3.4-.91Zm1.73.17a1.09,1.09,0,1,1,1.08-1.09A1.09,1.09,0,0,1,26,11.35Z"/><path class="cls-8" d="M87.24,32.52H59.1A2.11,2.11,0,0,1,57,30.41V21.88a2.11,2.11,0,0,1,2.11-2.11H87.24a2.11,2.11,0,0,1,2.11,2.11v8.53A2.08,2.08,0,0,1,87.24,32.52Z"/><circle class="cls-9" cx="62.01" cy="26.2" r="1.78"/><path class="cls-9" d="M66.88,29.17V23.45h1.18V28.2H71v1Z"/><path class="cls-9" d="M72,29.17V23.39h1.19v5.78Z"/><path class="cls-9" d="M76,29.17l-2-5.78h1.24l1.46,4.27L78,23.39h1.25l-2.06,5.78Z"/><path class="cls-9" d="M80.11,29.17V23.39h4.32v1H81.3v1.3h2.92v1H81.3V28.2h3.24v1Z"/></g></g></g></svg>